<?xml version="1.0" encoding="UTF-8" standalone="no"?>
<svg width="37px" height="37px" viewBox="0 0 37 37" version="1.1" xmlns="http://www.w3.org/2000/svg" xmlns:xlink="http://www.w3.org/1999/xlink">
    <!-- Generator: Sketch 49.1 (51147) - http://www.bohemiancoding.com/sketch -->
    <title>btn_list</title>
    <desc>Created with Sketch.</desc>
    <defs></defs>
    <g id="Page-1" stroke="none" stroke-width="1" fill="none" fill-rule="evenodd">
        <g id="画板切图专用" transform="translate(-891.000000, -27.000000)" fill="#1F1E1E" fill-rule="nonzero">
            <g id="btn_list" transform="translate(891.116955, 27.677419)">
                <path d="M13,24 L11,24 L11,22 L13,22 L13,24 Z M13,19.5 L11,19.5 L11,17.5 L13,17.5 L13,19.5 Z M13,15 L11,15 L11,13 L13,13 L13,15 Z M26,19.5 L15,19.5 L15,17.5 L26,17.5 L26,19.5 Z M15,13 L26,13 L26,15 L15,15 L15,13 Z M26,24 L15,24 L15,22 L26,22 L26,24 Z"></path>
            </g>
        </g>
    </g>
</svg>