<?xml version="1.0" encoding="UTF-8" standalone="no"?>
<svg width="24px" height="24px" viewBox="0 0 24 24" version="1.1" xmlns="http://www.w3.org/2000/svg" xmlns:xlink="http://www.w3.org/1999/xlink">
    <!-- Generator: Sketch 49 (51002) - http://www.bohemiancoding.com/sketch -->
    <title>btn_addfile</title>
    <desc>Created with Sketch.</desc>
    <defs></defs>
    <g id="Page-1" stroke="none" stroke-width="1" fill="none" fill-rule="evenodd">
        <g id="切图专用" transform="translate(-78.000000, -25.000000)">
            <g id="btn_addfile" transform="translate(78.000000, 25.000000)">
                <g transform="translate(2.000000, 0.000000)">
                    <g id="document-alt-fill">
                        <path d="M11.1928152,0 L19.1876833,7.30567602 L19.1876833,23.3828398 L0,23.3828398 L0,0 L11.1928152,0 Z" id="Shape" fill="#2D2D2D" fill-rule="nonzero"></path>
                        <polygon id="Triangle-5" fill="#6B6E72" transform="translate(12.710434, 6.354918) rotate(-135.000000) translate(-12.710434, -6.354918) " points="12.7104343 5.08341791 15.225489 7.62641767 10.1953796 7.62641767"></polygon>
                    </g>
                    <g id="Group-2" transform="translate(5.759176, 10.109939)" fill="#D8D8D8">
                        <path d="M3.27720515,3.21935843 L3.27720515,1.07602133 L3.27720515,0.540393973 L4.34845987,0.540393973 L4.34845987,1.07602133 L4.34845987,3.21935843 L6.26074435,3.21935843 L6.79637171,3.21935843 L6.79637171,4.29061315 L6.26074435,4.29061315 L4.34845987,4.29061315 L4.34845987,5.96712071 L4.34845987,6.50274807 L3.27720515,6.50274807 L3.27720515,5.96712071 L3.27720515,4.29061315 L1.20923933,4.29061315 L0.673611966,4.29061315 L0.673611966,3.21935843 L1.20923933,3.21935843 L3.27720515,3.21935843 Z" id="Combined-Shape"></path>
                    </g>
                </g>
            </g>
        </g>
    </g>
</svg>