<?xml version="1.0" encoding="UTF-8" standalone="no"?>
<svg width="48px" height="48px" viewBox="0 0 48 48" version="1.1" xmlns="http://www.w3.org/2000/svg" xmlns:xlink="http://www.w3.org/1999/xlink">
    <!-- Generator: Sketch 48.2 (47327) - http://www.bohemiancoding.com/sketch -->
    <title>shopping bag-alt</title>
    <desc>Created with Sketch.</desc>
    <defs></defs>
    <g id="xstudio_home_v1.0" stroke="none" stroke-width="1" fill="none" fill-rule="evenodd" transform="translate(-1125.000000, -250.000000)">
        <g id="shopping-bag-alt" transform="translate(1125.000000, 250.000000)" fill="#444444">
            <g transform="translate(5.000000, 3.000000)">
                <path d="M39,42 L0,42 L4.17857143,8.4 L9.88789285,8.4 C10.569,3.65680001 14.5929643,0 19.5,0 C24.4070357,0 28.4268214,3.65680001 29.1079285,8.4 L34.8214285,8.4 L39,42 Z M19.5,2.80000001 C16.1334643,2.80000001 13.3547143,5.20940003 12.7056429,8.4 L26.29575,8.4 C25.6452857,5.20939999 22.8651429,2.80000001 19.5,2.80000001 Z M6.3834643,11.2 L2.7857143,39.2 L36.2142857,39.2 L32.7321429,11.2 L6.3834643,11.2 Z" id="Shape" stroke="#444444" fill-rule="nonzero"></path>
                <path d="M13.5,28 C11.5656667,28 10,26.432 10,24.4976667 C10,22.5656667 11.5656667,21 13.5,21 C15.4343333,21 17,22.5656667 17,24.4976667 C17,26.4343334 15.432,28 13.5,28 Z" id="Path"></path>
                <polygon id="Triangle" transform="translate(20.000000, 22.000000) rotate(-130.000000) translate(-20.000000, -22.000000) " points="20 19 24 25 16 25"></polygon>
                <rect id="Rectangle-3" transform="translate(22.000000, 29.500000) rotate(20.000000) translate(-22.000000, -29.500000) " x="19" y="26" width="6" height="7"></rect>
            </g>
        </g>
    </g>
</svg>