<?xml version="1.0" encoding="UTF-8" standalone="no"?>
<svg width="48px" height="48px" viewBox="0 0 48 48" version="1.1" xmlns="http://www.w3.org/2000/svg" xmlns:xlink="http://www.w3.org/1999/xlink">
    <!-- Generator: Sketch 48.2 (47327) - http://www.bohemiancoding.com/sketch -->
    <title>icon_setting</title>
    <desc>Created with Sketch.</desc>
    <defs></defs>
    <g id="xstudio_home_v1.0" stroke="none" stroke-width="1" fill="none" fill-rule="evenodd" transform="translate(-1578.000000, -753.000000)">
        <g id="icon_setting" transform="translate(1578.000000, 753.000000)" fill="#444444" fill-rule="nonzero" stroke="#444444" stroke-width="1.8">
            <g transform="translate(4.000000, 5.000000)" id="Shape">
                <path d="M20.5260254,27.5447624 C25.0815809,27.5447624 28.6406087,23.9075458 28.6406087,19.4309716 C28.6406087,14.9543973 24.9392198,11.3171808 20.5260254,11.3171808 C15.9704698,11.3171808 12.4114421,14.9543973 12.4114421,19.4309716 C12.4114421,23.9075458 16.1128309,27.5447624 20.5260254,27.5447624 Z M20.5260254,25.3064753 C17.2517198,25.3064753 14.5468587,22.6485093 14.5468587,19.4309716 C14.5468587,16.2134338 17.2517198,13.5554679 20.5260254,13.5554679 C23.8003309,13.5554679 26.5051921,16.2134338 26.5051921,19.4309716 C26.5051921,22.6485093 23.8003309,25.3064753 20.5260254,25.3064753 Z M8.82638889,33.9089733 C10.3923611,35.1680098 12.1006944,36.1472604 13.8090278,36.8467251 C15.6597222,35.1680098 18.0798611,34.1887592 20.5,34.1887592 C23.0625,34.1887592 25.3402778,35.1680098 27.1909722,36.8467251 C29.0416667,36.1472604 30.75,35.1680098 32.1736111,33.9089733 C31.6041667,31.5307932 32.03125,29.0127202 33.1701389,26.7744331 C34.4513889,24.676039 36.4444444,22.9973236 38.8645833,22.2978589 C39.0069444,21.3186083 39.1493056,20.3393577 39.1493056,19.3601071 C39.1493056,18.3808564 39.0069444,17.4016058 38.8645833,16.4223552 C36.4444444,15.7228905 34.4513889,14.0441752 33.1701389,11.945781 C31.8888889,9.84738681 31.6041667,7.18942086 32.1736111,4.8112408 C30.6076389,3.5522043 28.8993056,2.57295369 27.1909722,1.87348896 C25.3402778,3.5522043 23.0625,4.53145491 20.5,4.53145491 C18.0798611,4.53145491 15.6597222,3.5522043 13.8090278,1.87348896 C11.9583333,2.57295369 10.25,3.5522043 8.82638889,4.8112408 C9.39583333,7.18942086 8.96875,9.70749387 7.82986111,11.945781 C6.54861111,14.0441752 4.55555556,15.7228905 2.13541667,16.4223552 C1.99305556,17.4016058 1.85069444,18.3808564 1.85069444,19.3601071 C1.85069444,20.3393577 1.99305556,21.3186083 2.13541667,22.2978589 C4.55555556,22.9973236 6.54861111,24.676039 7.82986111,26.7744331 C8.96875,29.0127202 9.39583333,31.5307932 8.82638889,33.9089733 Z M13.8090278,38.9451193 C11.3888889,38.1057617 9.11111111,36.8467251 7.11805556,35.0281169 C6.83333333,34.748331 6.69097222,34.3286521 6.83333333,34.0488663 C7.54513889,31.9504721 7.26041667,29.712185 6.12152778,27.8935767 C4.98263889,25.9350755 3.27430556,24.676039 1.13888889,24.2563601 C0.711805556,24.1164672 0.427083333,23.8366813 0.427083333,23.4170025 C0.142361111,22.157966 0,20.7590365 0,19.5 C0,18.2409635 0.142361111,16.981927 0.427083333,15.5829975 C0.569444444,15.1633187 0.854166667,14.8835328 1.13888889,14.7436399 C3.27430556,14.1840681 5.125,12.9250316 6.12152778,11.1064233 C7.26041667,9.14792209 7.40277778,7.04952792 6.83333333,4.95113375 C6.69097222,4.53145491 6.83333333,4.11177608 7.11805556,3.97188313 C9.11111111,2.2931678 11.3888889,1.03413129 13.8090278,0.0548806801 C14.2361111,-0.0850122647 14.5208333,0.0548806801 14.8055556,0.33466657 C16.3715278,1.87348896 18.3645833,2.85273958 20.5,2.85273958 C22.6354167,2.85273958 24.7708333,2.01338191 26.1944444,0.33466657 C26.4791667,0.0548806801 26.90625,-0.0850122647 27.1909722,0.0548806801 C29.6111111,0.894238349 31.8888889,2.15327485 33.8819444,3.97188313 C34.1666667,4.25166902 34.3090278,4.67134786 34.1666667,4.95113375 C33.4548611,7.04952792 33.7395833,9.28781503 34.8784722,11.1064233 C36.0173611,13.0649245 37.7256944,14.323961 39.8611111,14.7436399 C40.2881944,14.8835328 40.5729167,15.1633187 40.5729167,15.5829975 C40.8576389,16.842034 41,18.2409635 41,19.5 C41,20.7590365 40.8576389,22.018073 40.5729167,23.4170025 C40.4305556,23.8366813 40.1458333,24.1164672 39.8611111,24.2563601 C37.7256944,24.8159319 35.875,26.0749684 34.8784722,27.8935767 C33.7395833,29.8520779 33.5972222,31.9504721 34.1666667,34.0488663 C34.3090278,34.4685451 34.1666667,34.8882239 33.8819444,35.0281169 C31.8888889,36.7068322 29.6111111,37.9658687 27.1909722,38.9451193 C26.7638889,39.0850123 26.4791667,38.9451193 26.1944444,38.6653334 C24.6284722,37.126511 22.6354167,36.1472604 20.5,36.1472604 C18.3645833,36.1472604 16.2291667,36.9866181 14.8055556,38.6653334 C14.6631944,38.8052264 14.3784722,38.9451193 14.09375,38.9451193 L13.8090278,38.9451193 Z"></path>
            </g>
        </g>
    </g>
</svg>