<?xml version="1.0" encoding="UTF-8" standalone="no"?>
<svg width="26px" height="26px" viewBox="0 0 26 26" version="1.1" xmlns="http://www.w3.org/2000/svg" xmlns:xlink="http://www.w3.org/1999/xlink">
    <!-- Generator: Sketch 49.1 (51147) - http://www.bohemiancoding.com/sketch -->
    <title>icon_addsticker</title>
    <desc>Created with Sketch.</desc>
    <defs></defs>
    <g id="Page-1" stroke="none" stroke-width="1" fill="none" fill-rule="evenodd">
        <g id="画板切图专用" transform="translate(-717.000000, -30.000000)" fill="#888888">
            <path d="M728.977706,42.0430647 L728.977706,39.0122988 L730.977706,39.0122988 L730.977706,42.0430647 L734.002921,42.0430647 L734.002921,44.0430647 L730.977706,44.0430647 L730.977706,47.0122988 L728.977706,47.0122988 L728.977706,44.0430647 L726.002921,44.0430647 L726.002921,42.0430647 L728.977706,42.0430647 Z M729.99425,55.4926407 C723.090691,55.4926407 717.49425,49.8962001 717.49425,42.9926407 C717.49425,36.0890813 723.090691,30.4926407 729.99425,30.4926407 C736.89781,30.4926407 742.49425,36.0890813 742.49425,42.9926407 C742.49425,49.8962001 736.89781,55.4926407 729.99425,55.4926407 Z M729.99425,53.4926407 C735.79324,53.4926407 740.49425,48.7916306 740.49425,42.9926407 C740.49425,37.1936508 735.79324,32.4926407 729.99425,32.4926407 C724.19526,32.4926407 719.49425,37.1936508 719.49425,42.9926407 C719.49425,48.7916306 724.19526,53.4926407 729.99425,53.4926407 Z" id="icon_addsticker"></path>
        </g>
    </g>
</svg>