<?xml version="1.0" encoding="UTF-8" standalone="no"?>
<svg width="24px" height="24px" viewBox="0 0 24 24" version="1.1" xmlns="http://www.w3.org/2000/svg" xmlns:xlink="http://www.w3.org/1999/xlink">
    <!-- Generator: Sketch 48.2 (47327) - http://www.bohemiancoding.com/sketch -->
    <title>btn_trash</title>
    <desc>Created with Sketch.</desc>
    <defs></defs>
    <g id="切图专用" stroke="none" stroke-width="1" fill="none" fill-rule="evenodd" transform="translate(-206.000000, -13.000000)">
        <g id="btn_trash" transform="translate(206.000000, 13.000000)" fill="#AB3543" fill-rule="nonzero">
            <g transform="translate(6.000000, 5.000000)" id="Shape">
                <path d="M12.9061964,2.71011878 C12.8087657,2.35866787 12.7439398,2.16358442 12.7439398,2.16358442 C12.6380703,1.80048113 12.3699442,1.80048113 11.9717827,1.73770862 L9.81449933,1.47609382 C9.54637325,1.43324312 9.54637325,1.43324312 9.44088731,1.21072019 C9.08722171,0.445045858 8.97751633,0 8.59162958,0 L4.40671458,0 C4.02082782,0 3.91534188,0.445045858 3.56167629,1.21447903 C3.45619035,1.43324312 3.45619035,1.43324312 3.18806426,1.48022854 L1.02656142,1.74184333 C0.632235789,1.80423996 0.347615539,1.839573 0.242513182,2.20267629 C0.242513182,2.20267629 0.193414271,2.36280259 0.0921477671,2.71011878 C-0.0382712155,3.17508645 -0.0908223938,3.1243422 0.356054414,3.1243422 L12.6422897,3.1243422 C13.0891666,3.12810104 13.0404512,3.17508645 12.9061964,2.71011878 Z M11.5126312,4.37377838 L1.48571295,4.37377838 C0.810986512,4.37377838 0.778765352,4.45985566 0.819425388,4.9481281 L1.57892417,14.4222673 C1.64413366,14.9026462 1.69284899,15 2.29009121,15 L10.7082529,15 C11.3054952,15 11.3542105,14.9022703 11.41942,14.4222673 L12.1789188,4.9481281 C12.2195788,4.45572094 12.1873576,4.37377838 11.5126312,4.37377838 Z"></path>
            </g>
        </g>
    </g>
</svg>