<?xml version="1.0" encoding="UTF-8" standalone="no"?>
<svg width="24px" height="24px" viewBox="0 0 24 24" version="1.1" xmlns="http://www.w3.org/2000/svg" xmlns:xlink="http://www.w3.org/1999/xlink">
    <!-- Generator: Sketch 48.2 (47327) - http://www.bohemiancoding.com/sketch -->
    <title>btn_addproject</title>
    <desc>Created with Sketch.</desc>
    <defs></defs>
    <g id="切图专用" stroke="none" stroke-width="1" fill="none" fill-rule="evenodd" transform="translate(-42.000000, -43.000000)">
        <g id="btn_addproject" transform="translate(42.000000, 43.000000)">
            <g transform="translate(4.000000, 6.000000)">
                <rect id="Path" fill="#505355" x="0" y="0" width="17" height="13"></rect>
                <path d="M6.25625,3 L12.3125,3 L12.3125,4.1875 L6.25625,4.1875 L6.25625,3 Z M5.1875,10.3625 L4,10.3625 L4,9.175 L5.1875,9.175 L5.1875,10.3625 Z M5.1875,7.275 L4,7.275 L4,6.0875 L5.1875,6.0875 L5.1875,7.275 Z M5.1875,4.1875 L4,4.1875 L4,3 L5.1875,3 L5.1875,4.1875 Z M12.3125,10.3625 L6.25625,10.3625 L6.25625,9.175 L12.3125,9.175 L12.3125,10.3625 Z M12.3125,7.275 L6.25625,7.275 L6.25625,6.0875 L12.3125,6.0875 L12.3125,7.275 Z" id="Shape" fill="#FFFFFF" fill-rule="nonzero"></path>
            </g>
        </g>
    </g>
</svg>