<?xml version="1.0" encoding="UTF-8" standalone="no"?>
<svg width="24px" height="24px" viewBox="0 0 24 24" version="1.1" xmlns="http://www.w3.org/2000/svg" xmlns:xlink="http://www.w3.org/1999/xlink">
    <!-- Generator: Sketch 48.2 (47327) - http://www.bohemiancoding.com/sketch -->
    <title>btn_addproject</title>
    <desc>Created with Sketch.</desc>
    <defs></defs>
    <g id="切图专用" stroke="none" stroke-width="1" fill="none" fill-rule="evenodd" transform="translate(-42.000000, -13.000000)">
        <g id="btn_addproject" transform="translate(42.000000, 13.000000)">
            <g transform="translate(3.000000, 5.000000)">
                <g>
                    <rect id="Path" fill="#95C465" x="0" y="0" width="19" height="15"></rect>
                    <path d="M7.25625,4 L13.3125,4 L13.3125,5.1875 L7.25625,5.1875 L7.25625,4 Z M6.1875,11.3625 L5,11.3625 L5,10.175 L6.1875,10.175 L6.1875,11.3625 Z M6.1875,8.275 L5,8.275 L5,7.0875 L6.1875,7.0875 L6.1875,8.275 Z M6.1875,5.1875 L5,5.1875 L5,4 L6.1875,4 L6.1875,5.1875 Z M13.3125,11.3625 L7.25625,11.3625 L7.25625,10.175 L13.3125,10.175 L13.3125,11.3625 Z M13.3125,8.275 L7.25625,8.275 L7.25625,7.0875 L13.3125,7.0875 L13.3125,8.275 Z" id="Shape" fill="#FFFFFF" fill-rule="nonzero"></path>
                </g>
            </g>
        </g>
    </g>
</svg>